<?xml version="1.0" standalone="no"?><!DOCTYPE svg PUBLIC "-//W3C//DTD SVG 1.1//EN" "http://www.w3.org/Graphics/SVG/1.1/DTD/svg11.dtd"><svg t="1747035511768" class="icon" viewBox="0 0 1024 1024" version="1.1" xmlns="http://www.w3.org/2000/svg" p-id="15165" xmlns:xlink="http://www.w3.org/1999/xlink" width="64" height="64"><path d="M324.188471 88.305928C356.178012 28.325539 416.158401-3.664002 484.136176 0.334691s119.960778 51.983004 135.955549 115.962085c19.993463 63.979082-3.998693 131.956856-55.981697 171.943783L640.085188 376.211796 748.049888 280.243174c19.993463-15.99477 47.984311-15.99477 63.979082 3.998692 15.99477 19.993463 15.99477 47.984311-3.998693 63.979082l-139.954241 127.958164c-7.997385 7.997385-19.993463 11.996078-27.990848 11.996078h-3.998693c-11.996078 0-23.992156-7.997385-31.989541-15.994771L512.127024 360.217026v163.946397c51.983004 35.988234 159.947705 143.952934 231.924172 443.85488 3.998693 23.992156-7.997385 47.984311-31.989541 51.983004h-11.996078c-19.993463 0-39.986926-15.99477-43.985619-35.988233-51.983004-219.928094-119.960778-319.895409-163.946397-363.881028l-207.932016 363.881028c-7.997385 15.99477-23.992156 23.992156-39.986926 23.992156-7.997385 0-15.99477-3.998693-19.993463-7.997386-19.993463-11.996078-27.990848-39.986926-15.994771-59.980389l219.928094-383.874491v-239.921557l-127.958164 115.962086v151.950319c0 23.992156-19.993463 43.985619-43.985618 43.985619S212.225078 608.135968 212.225078 584.143812v-171.943782c0-11.996078 3.998693-23.992156 15.99477-31.989541l127.958164-119.960778c-51.983004-43.985619-59.980389-115.962086-31.989541-171.943783z m143.952934 0C428.154479 88.305928 400.163631 120.295469 400.163631 160.282395s31.989541 67.977774 71.976467 67.977775 67.977774-31.989541 67.977774-71.976467c-3.998693-35.988234-35.988234-67.977774-71.976467-67.977775z" fill="#bfbfbf" p-id="15166"></path></svg>